name rise49.25peak52.1432fall72.8391.mot
datacolumns 19
datarows 20
range 0.43833300000000 0.46999400000000
endheader
time	ground_force1_vx	ground_force1_vy	ground_force1_vz	ground_force1_px	ground_force1_py	ground_force1_pz	ground_force2_vx	ground_force2_vy	ground_force2_vz	ground_force2_px	ground_force2_py	ground_force2_pz	ground_torque1_x	ground_torque1_y	ground_torque1_z	ground_torque2_x	ground_torque2_y	ground_torque2_z	
0.43833300000000	-7.37510100000000	46.55951000000000	-10.50186700000000	0.33109000000000	0.00000000000000	0.10150900000000	-72.64426600000000	795.35960599999999	-41.96024200000000	0.10341100000000	0.00000000000000	-0.06260000000000	0.00000000000000	-6.91262400000000	0.00000000000000	0.00000000000000	-15.77621400000000	0.00000000000000	
0.43999900000000	-7.86476200000000	53.30094800000000	-11.56608900000000	0.33666900000000	0.00000000000000	0.10206900000000	-73.70566200000000	792.89856399999996	-41.54304000000000	0.10245800000000	0.00000000000000	-0.06248800000000	0.00000000000000	-7.71772000000000	0.00000000000000	0.00000000000000	-15.76147800000000	0.00000000000000	
0.44166600000000	-8.20005000000000	59.99658200000000	-12.50119400000000	0.34177500000000	0.00000000000000	0.10259300000000	-74.77630499999999	790.32371699999999	-41.11307000000000	0.10151100000000	0.00000000000000	-0.06237300000000	0.00000000000000	-8.45413100000000	0.00000000000000	0.00000000000000	-15.74886000000000	0.00000000000000	
0.44332700000000	-8.36997000000000	66.58013099999999	-13.29073500000000	0.34646700000000	0.00000000000000	0.10308800000000	-75.85484300000000	787.63141099999996	-40.67016000000000	0.10056900000000	0.00000000000000	-0.06225700000000	0.00000000000000	-9.10875700000000	0.00000000000000	0.00000000000000	-15.73823000000000	0.00000000000000	
0.44499900000000	-8.37107800000000	73.01036400000000	-13.92664400000000	0.35079600000000	0.00000000000000	0.10355600000000	-76.93982400000000	784.81794300000001	-40.21414400000000	0.09963200000000	0.00000000000000	-0.06213900000000	0.00000000000000	-9.67398600000000	0.00000000000000	0.00000000000000	-15.72944400000000	0.00000000000000	
0.44666400000000	-8.20675600000000	79.27064100000000	-14.40864900000000	0.35480200000000	0.00000000000000	0.10400100000000	-78.02969100000000	781.87956999999994	-39.74486500000000	0.09870100000000	0.00000000000000	-0.06202000000000	0.00000000000000	-10.14747200000000	0.00000000000000	0.00000000000000	-15.72233900000000	0.00000000000000	
0.44832900000000	-7.88605100000000	85.36649400000000	-14.74314900000000	0.35852100000000	0.00000000000000	0.10442600000000	-79.12278400000000	778.81252199999994	-39.26217600000000	0.09777600000000	0.00000000000000	-0.06189800000000	0.00000000000000	-10.53150700000000	0.00000000000000	0.00000000000000	-15.71674200000000	0.00000000000000	
0.44999500000000	-7.42225700000000	91.32180900000000	-14.94173400000000	0.36198300000000	0.00000000000000	0.10483300000000	-80.21734300000000	775.61301800000001	-38.76594200000000	0.09685700000000	0.00000000000000	-0.06177500000000	0.00000000000000	-10.83213000000000	0.00000000000000	0.00000000000000	-15.71246000000000	0.00000000000000	
0.45166800000000	-6.83138600000000	97.17416400000000	-15.01954500000000	0.36521200000000	0.00000000000000	0.10522400000000	-81.31150800000000	772.27727300000004	-38.25604300000000	0.09594400000000	0.00000000000000	-0.06165000000000	0.00000000000000	-11.05806400000000	0.00000000000000	0.00000000000000	-15.70929200000000	0.00000000000000	
0.45333400000000	-6.13069100000000	102.96984100000000	-14.99362200000000	0.36823200000000	0.00000000000000	0.10560000000000	-82.40332500000000	768.80151699999999	-37.73237600000000	0.09503700000000	0.00000000000000	-0.06152400000000	0.00000000000000	-11.21962900000000	0.00000000000000	0.00000000000000	-15.70701700000000	0.00000000000000	
0.45500400000000	-5.33733700000000	108.75900100000000	-14.88138600000000	0.37106000000000	0.00000000000000	0.10596300000000	-83.49074299999999	765.18200600000000	-37.19485600000000	0.09413700000000	0.00000000000000	-0.06139600000000	0.00000000000000	-11.32770700000000	0.00000000000000	0.00000000000000	-15.70540700000000	0.00000000000000	
0.45666400000000	-4.46731200000000	114.59135200000000	-14.69935800000000	0.37371400000000	0.00000000000000	0.10631400000000	-84.57162599999999	761.41503999999998	-36.64342100000000	0.09324400000000	0.00000000000000	-0.06126700000000	0.00000000000000	-11.39283600000000	0.00000000000000	0.00000000000000	-15.70421500000000	0.00000000000000	
0.45833300000000	-3.53461100000000	120.51258300000001	-14.46215500000000	0.37620800000000	0.00000000000000	0.10665400000000	-85.64374700000000	757.49697400000002	-36.07803200000000	0.09235700000000	0.00000000000000	-0.06113600000000	0.00000000000000	-11.42449400000000	0.00000000000000	0.00000000000000	-15.70318800000000	0.00000000000000	
0.45999700000000	-2.55072200000000	126.56170299999999	-14.18182000000000	0.37855400000000	0.00000000000000	0.10698400000000	-86.70480100000000	753.42423699999995	-35.49867500000000	0.09147700000000	0.00000000000000	-0.06100400000000	0.00000000000000	-11.43058600000000	0.00000000000000	0.00000000000000	-15.70205700000000	0.00000000000000	
0.46166200000000	-1.52438200000000	132.76931500000001	-13.86745500000000	0.38076400000000	0.00000000000000	0.10730400000000	-87.75240500000000	749.19334900000001	-34.90536500000000	0.09060500000000	0.00000000000000	-0.06087000000000	0.00000000000000	-11.41714300000000	0.00000000000000	0.00000000000000	-15.70054600000000	0.00000000000000	
0.46333000000000	-0.46159200000000	139.15680900000001	-13.52514400000000	0.38284800000000	0.00000000000000	0.10761500000000	-88.78410500000000	744.80093099999999	-34.29814600000000	0.08974000000000	0.00000000000000	-0.06073500000000	0.00000000000000	-11.38821800000000	0.00000000000000	0.00000000000000	-15.69836600000000	0.00000000000000	
0.46499300000000	0.63416600000000	145.73634699999999	-13.15811600000000	0.38481400000000	0.00000000000000	0.10791700000000	-89.79738300000000	740.24373200000002	-33.67709600000000	0.08888300000000	0.00000000000000	-0.06059800000000	0.00000000000000	-11.34595300000000	0.00000000000000	0.00000000000000	-15.69522000000000	0.00000000000000	
0.46666600000000	1.76157200000000	152.51151600000000	-12.76708900000000	0.38667000000000	0.00000000000000	0.10821100000000	-90.78966000000000	735.51863900000001	-33.04232300000000	0.08803400000000	0.00000000000000	-0.06046000000000	0.00000000000000	-11.29078000000000	0.00000000000000	0.00000000000000	-15.69080400000000	0.00000000000000	
0.46833400000000	2.92100000000000	159.47846000000001	-12.35074500000000	0.38842200000000	0.00000000000000	0.10849700000000	-91.75830600000000	730.62269800000001	-32.39397400000000	0.08719200000000	0.00000000000000	-0.06032000000000	0.00000000000000	-11.22171800000000	0.00000000000000	0.00000000000000	-15.68480600000000	0.00000000000000	
0.46999400000000	4.11401900000000	166.62732700000001	-11.90626400000000	0.39007800000000	0.00000000000000	0.10877600000000	-92.70064499999999	725.55313300000000	-31.73223100000000	0.08635900000000	0.00000000000000	-0.06017900000000	0.00000000000000	-11.13671700000000	0.00000000000000	0.00000000000000	-15.67690600000000	0.00000000000000	
